<?xml version="1.0" encoding="UTF-8"?>
<svg xmlns="http://www.w3.org/2000/svg" xmlns:xlink="http://www.w3.org/1999/xlink" viewBox="0 0 30 30" width="30px" height="30px">
<g id="surface964458">
<path style="fill-rule:nonzero;fill:#FFF;fill-opacity:1;stroke-width:8;stroke-linecap:butt;stroke-linejoin:round;stroke:#FFF;stroke-opacity:1;stroke-miterlimit:10;" d="M 131.869295 74.544393 C 131.869295 88.272383 126.996561 100.899323 118.890956 110.78535 L 153.117225 145.01162 C 154.616528 146.440643 155.225619 148.59589 154.686808 150.587152 C 154.171422 152.60184 152.60184 154.171422 150.587152 154.686808 C 148.59589 155.225619 146.440643 154.616528 145.01162 153.117225 L 110.78535 118.890956 C 100.899323 126.996561 88.272383 131.869295 74.544393 131.869295 C 42.941903 131.869295 17.196065 106.123456 17.196065 74.544393 C 17.196065 42.941903 42.941903 17.196065 74.544393 17.196065 C 106.123456 17.196065 131.869295 42.941903 131.869295 74.544393 Z M 28.675101 74.544393 C 28.675101 99.938832 49.126527 120.390258 74.544393 120.390258 C 99.938832 120.390258 120.390258 99.938832 120.390258 74.544393 C 120.390258 49.126527 99.938832 28.675101 74.544393 28.675101 C 49.126527 28.675101 28.675101 49.126527 28.675101 74.544393 Z M 28.675101 74.544393 " transform="matrix(0.166744,0,0,0.166744,0.66,0.66)"/>
<path style=" stroke:none;fill-rule:nonzero;fill:#FFF;fill-opacity:1;" d="M 13.089844 3.527344 C 7.820312 3.527344 3.527344 7.820312 3.527344 13.089844 C 3.527344 18.355469 7.820312 22.648438 13.089844 22.648438 C 15.378906 22.648438 17.484375 21.835938 19.132812 20.484375 L 24.839844 26.191406 C 25.078125 26.441406 25.4375 26.542969 25.769531 26.453125 C 26.105469 26.367188 26.367188 26.105469 26.453125 25.769531 C 26.542969 25.4375 26.441406 25.078125 26.191406 24.839844 L 20.484375 19.132812 C 21.835938 17.484375 22.648438 15.378906 22.648438 13.089844 C 22.648438 7.820312 18.355469 3.527344 13.089844 3.527344 Z M 13.089844 5.441406 C 17.324219 5.441406 20.734375 8.851562 20.734375 13.089844 C 20.734375 17.324219 17.324219 20.734375 13.089844 20.734375 C 8.851562 20.734375 5.441406 17.324219 5.441406 13.089844 C 5.441406 8.851562 8.851562 5.441406 13.089844 5.441406 Z M 13.089844 5.441406 "/>
</g>
</svg>
